<?xml version="1.0" encoding="utf-8"?>
<!-- Generator: Adobe Illustrator 16.0.0, SVG Export Plug-In . SVG Version: 6.00 Build 0)  -->
<!DOCTYPE svg PUBLIC "-//W3C//DTD SVG 1.1//EN" "http://www.w3.org/Graphics/SVG/1.1/DTD/svg11.dtd">
<svg version="1.1" id="Capa_1" xmlns="http://www.w3.org/2000/svg" xmlns:xlink="http://www.w3.org/1999/xlink" x="0px" y="0px"
	 width="841.89px" height="401px" viewBox="0 0 841.89 401" enable-background="new 0 0 841.89 401" xml:space="preserve">
<g>
	<linearGradient id="SVGID_1_" gradientUnits="userSpaceOnUse" x1="277.3838" y1="241.9185" x2="125.0589" y2="153.9736">
		<stop  offset="0" style="stop-color:#E52420"/>
		<stop  offset="1" style="stop-color:#FDC107"/>
	</linearGradient>
	<polygon fill="url(#SVGID_1_)" points="275.927,159.862 273.984,156.497 275.927,153.131 202.678,110.842 198.792,117.572 
		266.213,156.497 200.736,194.301 129.43,153.131 127.487,156.497 123.602,156.497 123.602,241.078 131.372,241.078 
		131.372,163.227 196.85,201.029 196.85,283.368 200.736,283.368 202.678,286.731 275.927,244.441 272.041,237.711 204.621,276.637 
		204.621,201.029 	"/>
	<g>
		<circle fill="#575756" cx="200.735" cy="114.207" r="9.498"/>
	</g>
	<g>
		<circle fill="#575756" cx="200.735" cy="283.368" r="9.498"/>
	</g>
	<g>
		<circle fill="#575756" cx="200.735" cy="198.786" r="9.498"/>
	</g>
	<g>
		<circle fill="#575756" cx="127.487" cy="156.497" r="9.498"/>
	</g>
	<g>
		<circle fill="#575756" cx="273.984" cy="156.497" r="9.498"/>
	</g>
	<g>
		<circle fill="#575756" cx="273.984" cy="241.078" r="9.498"/>
	</g>
	<g>
		<circle fill="#575756" cx="127.487" cy="241.078" r="9.498"/>
	</g>
</g>
<g>
	<path fill="#575756" d="M389.776,177.467c-3.603-3.449-8.968-5.366-13.645-5.366c-11.498,0-18.474,8.74-18.474,19.776
		c0,8.815,5.136,17.937,18.474,17.937c4.216,0,7.896-0.919,12.111-4.292v-9.506h-13.721v-9.044h22.997v22.612
		c-5.29,6.055-11.958,9.658-21.387,9.658c-20.159,0-28.36-13.26-28.36-27.365c0-15.1,9.428-29.05,28.36-29.05
		c7.206,0,14.411,2.759,19.93,8.202L389.776,177.467z"/>
	<path fill="#575756" d="M413.762,180.227l0.689,4.369c2.915-4.676,6.824-5.365,10.656-5.365c3.91,0,7.664,1.534,9.734,3.602
		l-4.215,8.125c-1.916-1.609-3.682-2.453-6.748-2.453c-4.904,0-9.427,2.606-9.427,9.582v19.928h-9.351v-37.789H413.762z"/>
	<path fill="#575756" d="M468.338,180.227h8.965v37.789h-8.814l-0.459-5.518c-2.148,4.445-8.051,6.592-12.266,6.668
		c-11.189,0.077-19.471-6.822-19.471-20.083c0-13.03,8.664-19.853,19.703-19.776c5.059,0,9.885,2.375,12.033,6.133L468.338,180.227z
		 M445.646,199.083c0,7.205,4.982,11.497,11.191,11.497c14.717,0,14.717-22.918,0-22.918
		C450.629,187.662,445.646,191.877,445.646,199.083z"/>
	<path fill="#575756" d="M485.193,233.807v-53.581h8.738l0.615,5.213c2.91-4.217,7.969-6.056,12.262-6.056
		c11.652,0,19.395,8.661,19.395,19.776c0,11.038-6.977,19.777-19.088,19.777c-3.984,0-9.887-1.227-12.568-5.367v20.237H485.193z
		 M516.852,199.16c0-5.903-3.986-10.731-10.732-10.731s-10.729,4.828-10.729,10.731c0,5.902,4.367,10.73,10.729,10.73
		C512.482,209.891,516.852,205.063,516.852,199.16z"/>
	<path fill="#575756" d="M542.449,164.36v21.002c3.371-4.369,7.512-5.672,11.803-5.672c10.732,0,15.486,7.282,15.486,18.397v19.928
		h-9.352v-19.852c0-6.899-3.604-9.812-8.586-9.812c-5.518,0-9.352,4.675-9.352,10.348v19.315h-9.352V164.36H542.449z"/>
	<path fill="#575756" d="M577.627,233.807v-53.581h8.738l0.615,5.213c2.912-4.217,7.969-6.056,12.262-6.056
		c11.652,0,19.393,8.661,19.393,19.776c0,11.038-6.975,19.777-19.086,19.777c-3.986,0-9.887-1.227-12.568-5.367v20.237H577.627z
		 M609.285,199.16c0-5.903-3.986-10.731-10.73-10.731c-6.746,0-10.732,4.828-10.732,10.731c0,5.902,4.369,10.73,10.732,10.73
		C604.916,209.891,609.285,205.063,609.285,199.16z"/>
	<path fill="#575756" d="M655.502,180.227h8.967v37.789h-8.813l-0.459-5.518c-2.148,4.445-8.051,6.592-12.268,6.668
		c-11.189,0.077-19.469-6.822-19.469-20.083c0-13.03,8.662-19.853,19.699-19.776c5.061,0,9.889,2.375,12.037,6.133L655.502,180.227z
		 M632.813,199.083c0,7.205,4.982,11.497,11.191,11.497c14.717,0,14.717-22.918,0-22.918
		C637.795,187.662,632.813,191.877,632.813,199.083z"/>
	<path fill="#575756" d="M705.625,213.187c-4.369,4.292-8.967,5.979-14.564,5.979c-10.959,0-20.08-6.591-20.08-20.006
		s9.121-20.007,20.08-20.007c5.367,0,9.508,1.534,13.646,5.596l-5.902,6.208c-2.223-1.993-4.982-2.99-7.588-2.99
		c-6.287,0-10.885,4.599-10.885,11.192c0,7.206,4.906,11.038,10.729,11.038c2.992,0,5.98-0.844,8.279-3.144L705.625,213.187z"/>
	<path fill="#575756" d="M718.883,164.436v30.968l12.725-15.177h11.191v0.538l-15.408,17.246l17.555,19.316v0.689h-11.27
		l-14.793-17.092v17.092h-9.352v-53.58H718.883z"/>
</g>
</svg>
